<svg width="157" height="20" viewBox="0 0 157 20" fill="none" xmlns="http://www.w3.org/2000/svg">
<g clip-path="url(#clip0_396_7323)">
<path d="M47.5469 6.40401V3.77531H45.3433V15.7293H47.5897V8.13568C48.2879 6.56392 49.6568 5.70978 51.4314 5.70978C51.5874 5.70978 51.7239 5.70978 51.8799 5.73318V3.5101C51.7239 3.48669 51.6108 3.48669 51.5211 3.48669C49.9259 3.48669 48.5102 4.52024 47.5429 6.40791L47.5469 6.40401Z" fill="#13130A"/>
<path d="M58.5061 0.830688H56.2831V3.77531H53.8962L53.5334 5.61618H56.2831V15.7293H58.5061V5.61618H61.7199V3.77531H58.5061V0.830688Z" fill="#13130A"/>
<path d="M79.3681 3.43994C77.4571 3.43994 75.9984 4.53978 74.6061 6.24805C74.1107 4.33697 72.695 3.43994 70.8307 3.43994C68.8065 3.43994 67.4142 4.65288 66.248 6.13494V3.77535H64.0444V15.7293H66.2909V7.6404C67.3479 6.42745 68.5842 5.41731 70.0897 5.41731C71.5054 5.41731 72.5858 6.18175 72.5858 8.36193V15.7332H74.8089V7.68331C75.8658 6.47036 77.1022 5.41341 78.6271 5.41341C80.0195 5.41341 81.1232 6.17784 81.1232 8.35803V15.7293H83.3463V7.90951C83.3463 4.85179 81.7043 3.43604 79.3681 3.43604V3.43994Z" fill="#13130A"/>
<path d="M107.57 3.43994C105.456 3.43994 104.021 4.65288 102.808 6.00234V3.77925H100.604V15.7332H102.851V7.6404C103.908 6.47036 105.164 5.41731 106.829 5.41731C108.401 5.41731 109.505 6.18175 109.505 8.36193V15.7332H111.728V7.90951C111.728 4.85179 110.086 3.43604 107.57 3.43604V3.43994Z" fill="#13130A"/>
<path d="M118.588 0.830688H116.361V3.77531H113.974L113.615 5.61618H116.361V15.7293H118.588V5.61618H121.802V3.77531H118.588V0.830688Z" fill="#13130A"/>
<path d="M139.282 6.40401V3.77531H137.079V15.7293H139.325V8.13568C140.023 6.56392 141.392 5.70978 143.167 5.70978C143.323 5.70978 143.46 5.70978 143.616 5.73318V3.5101C143.46 3.48669 143.346 3.48669 143.257 3.48669C141.662 3.48669 140.246 4.52024 139.279 6.40791L139.282 6.40401Z" fill="#13130A"/>
<path d="M7.06708 0L10.6201 9.15367H4.9766L7.19969 3.48284H4.80889L0 15.7527H2.3869L4.25117 10.9945H11.3378L13.1864 15.7527H15.6552L9.49298 0H7.06708Z" fill="#13130A"/>
<path d="M37.2426 3.43994C35.5109 3.43994 33.7364 3.95866 32.1178 4.9922V7.14898H32.1412C33.6233 6.02574 35.3081 5.37441 36.9501 5.37441C38.8846 5.37441 39.8245 6.31825 39.8245 8.00312V8.52184C35.2418 8.74805 33.1513 9.60218 32.2075 10.546C31.6225 11.131 31.2637 11.915 31.2637 12.8393C31.2637 14.727 32.6794 16.053 35.2418 16.053C36.837 16.053 38.3932 15.4095 39.2161 14.5242L38.2528 13.1552C37.773 13.7285 36.6537 14.3331 35.6045 14.3877C34.3292 14.454 33.4712 13.7363 33.4712 12.6833C33.4712 12.2777 33.6077 11.8292 33.9665 11.4704C34.7738 10.6825 36.4392 10.234 39.8323 10.0078V15.7371H42.0554V8.06552C42.0554 5.1209 40.4368 3.43604 37.2465 3.43604L37.2426 3.43994Z" fill="#13130A"/>
<path d="M129.025 3.43994C127.293 3.43994 125.519 3.95866 123.9 4.9922V7.14898H123.923C125.405 6.02574 127.09 5.37441 128.732 5.37441C130.667 5.37441 131.607 6.31825 131.607 8.00312V8.52184C127.024 8.74805 124.934 9.60218 123.99 10.546C123.405 11.131 123.046 11.915 123.046 12.8393C123.046 14.727 124.462 16.053 127.024 16.053C128.619 16.053 130.175 15.4095 130.998 14.5242L130.035 13.1552C129.555 13.7285 128.436 14.3331 127.387 14.3877C126.111 14.454 125.253 13.7363 125.253 12.6833C125.253 12.2777 125.39 11.8292 125.749 11.4704C126.556 10.6825 128.221 10.234 131.615 10.0078V15.7371H133.838V8.06552C133.838 5.1209 132.219 3.43604 129.029 3.43604L129.025 3.43994Z" fill="#13130A"/>
<path d="M154.154 3.77539L150.741 12.777L147.297 3.77539H144.914L149.61 15.7606L148.007 20H150.23L151.868 15.7177L156.443 3.77539H154.154Z" fill="#13130A"/>
<path d="M23.9938 3.46729C22.0554 3.46729 20.4875 4.44622 19.5671 5.50317L19.5437 3.7715H17.3635V20H19.61V6.98913C20.4407 6.09209 21.8331 5.33546 23.2957 5.33546C25.5188 5.33546 27.2465 6.76682 27.2972 9.70753C27.3362 12.0164 25.9985 14.0601 23.7364 13.9782C22.7886 13.9431 21.9657 13.6116 21.3534 13.0344L20.3666 14.6997C21.096 15.3511 22.3674 15.8542 23.7871 15.8269C27.3791 15.7567 29.5437 12.933 29.5437 9.59833C29.5437 5.65527 26.8019 3.47119 23.9938 3.47119V3.46729Z" fill="#13130A"/>
<path d="M92.2737 3.43994C88.4983 3.43994 86.0256 6.24805 86.0256 10C86.0256 13.4828 88.2487 16.0452 92.6325 16.0452C94.5436 16.0452 96.205 15.4602 97.3283 14.766V12.7418H97.3049C95.8891 13.6388 94.45 14.1576 92.7222 14.1576C89.9804 14.1576 88.3852 12.6989 88.2292 10.2691C88.1824 9.9298 88.2721 8.97426 88.3189 8.74025C88.7011 6.62637 90.1598 5.28082 92.2308 5.28082C94.567 5.28082 95.6902 6.85258 95.8267 8.74025H89.7971L89.1965 10.3861H97.9055C97.9406 9.9922 97.9601 9.7972 97.9601 9.57489C97.9601 6.24805 96.2284 3.43994 92.2737 3.43994Z" fill="#13130A"/>
</g>
<defs>
<clipPath id="clip0_396_7323">
<rect width="156.443" height="20" fill="white"/>
</clipPath>
</defs>
</svg>
